<svg width="344" height="70" viewBox="0 0 344 70" fill="none" xmlns="http://www.w3.org/2000/svg">
<path d="M19.8209 56.5431C9.19228 56.5431 4.53158 50.7456 4.53158 42.1063V15.1652H8.68074V42.1063C8.68074 49.3815 12.3184 52.9055 19.8209 52.9055C27.3235 52.9055 30.9612 49.3815 30.9612 42.1063V15.1652H35.1103V42.1063C35.1103 50.7456 30.4496 56.5431 19.8209 56.5431Z" fill="white"/>
<path d="M141.442 55.8042V15.1652H147.183L160.881 50.2341H160.994L174.749 15.1652H180.49V55.8042H176.341V21.0195H176.227L162.813 55.8042H159.062L145.705 21.0195H145.591V55.8042H141.442ZM195.725 56.5431C189.928 56.5431 186.234 53.3033 186.234 48.4721C186.234 42.22 190.667 40.2306 198.169 38.9234C202.944 38.0708 206.013 37.7298 206.013 34.2627C206.013 31.3071 204.081 29.3178 199.42 29.3178C193.793 29.3178 191.804 31.3071 191.519 35.5699H187.598C187.882 30.4545 191.122 26.078 199.534 26.078C204.876 26.078 209.594 28.3515 209.594 35.2858V49.7794C209.594 52.1097 209.935 53.1897 211.242 53.1897C211.47 53.1897 211.697 53.1897 212.038 53.1328V55.8042C211.413 55.9179 210.787 56.0316 210.105 56.0316C207.661 56.0316 206.24 55.0653 206.013 51.4277H205.899C203.91 54.7243 200.443 56.5431 195.725 56.5431ZM190.098 48.1311C190.098 51.4845 191.974 53.3033 196.18 53.3033C202.091 53.3033 206.013 50.1773 206.013 44.9482V39.5486C205.161 40.7422 202.091 41.4242 198.624 41.9926C192.997 43.0157 190.098 44.4366 190.098 48.1311ZM228.964 56.5431C220.665 56.5431 215.095 50.4046 215.095 41.3106C215.095 32.2733 220.665 26.1349 228.964 26.1349C236.011 26.1349 240.786 30.8524 241.411 36.9909H237.546C237.319 33.7511 234.988 29.3746 228.964 29.3746C221.859 29.3746 218.96 35.3994 218.96 41.3106C218.96 47.2785 221.859 53.3602 228.964 53.3602C235.045 53.3602 237.319 48.9837 237.546 45.4597H241.411C241.013 51.7119 236.011 56.5431 228.964 56.5431ZM265.934 36.252C265.934 32.5575 264.229 29.3746 259.227 29.3746C253.714 29.3746 250.077 33.2396 250.077 37.5024V55.8042H246.382V15.1652H250.077V30.9661H250.19C251.839 28.5789 254.965 26.1349 260.137 26.1349C265.309 26.1349 269.629 29.0336 269.629 35.4563V55.8042H265.934V36.252ZM276.244 55.8042V26.8169H279.939V55.8042H276.244ZM275.676 21.0195V16.2451H280.45V21.0195H275.676ZM306.287 36.252C306.287 32.5575 304.582 29.3746 299.58 29.3746C294.067 29.3746 290.429 33.2396 290.429 37.5024V55.8042H286.735V26.8169H290.429V30.9661H290.543C292.191 28.5789 295.317 26.1349 300.489 26.1349C305.662 26.1349 309.981 29.0336 309.981 35.4563V55.8042H306.287V36.252ZM324.554 56.5431C318.757 56.5431 315.062 53.3033 315.062 48.4721C315.062 42.22 319.496 40.2306 326.998 38.9234C331.772 38.0708 334.842 37.7298 334.842 34.2627C334.842 31.3071 332.909 29.3178 328.249 29.3178C322.622 29.3178 320.632 31.3071 320.348 35.5699H316.426C316.71 30.4545 319.95 26.078 328.362 26.078C333.705 26.078 338.423 28.3515 338.423 35.2858V49.7794C338.423 52.1097 338.764 53.1897 340.071 53.1897C340.298 53.1897 340.526 53.1897 340.867 53.1328V55.8042C340.241 55.9179 339.616 56.0316 338.934 56.0316C336.49 56.0316 335.069 55.0653 334.842 51.4277H334.728C332.739 54.7243 329.272 56.5431 324.554 56.5431ZM318.927 48.1311C318.927 51.4845 320.803 53.3033 325.009 53.3033C330.92 53.3033 334.842 50.1773 334.842 44.9482V39.5486C333.989 40.7422 330.92 41.4242 327.453 41.9926C321.826 43.0157 318.927 44.4366 318.927 48.1311Z" fill="white"/>
<path d="M53.5643 4.10718C53.5643 6.19989 55.2608 7.89636 57.3535 7.89636C59.4462 7.89636 61.1427 6.19989 61.1427 4.10718C61.1427 2.01447 59.4462 0.317991 57.3535 0.317991C55.2608 0.317991 53.5643 2.01447 53.5643 4.10718ZM112.417 62.961C112.417 65.0537 114.113 66.7502 116.206 66.7502C118.299 66.7502 119.995 65.0537 119.995 62.961C119.995 60.8683 118.299 59.1718 116.206 59.1718C114.113 59.1718 112.417 60.8683 112.417 62.961ZM56.8511 4.60955L115.704 63.4634L116.708 62.4586L57.8559 3.6048L56.8511 4.60955Z" fill="white"/>
<path d="M57.3535 66.7485C59.4462 66.7485 61.1427 65.0521 61.1427 62.9594C61.1427 60.8666 59.4462 59.1702 57.3535 59.1702C55.2608 59.1702 53.5643 60.8666 53.5643 62.9594C53.5643 65.0521 55.2608 66.7485 57.3535 66.7485ZM116.207 7.89595C118.3 7.89595 119.997 6.19948 119.997 4.10677C119.997 2.01406 118.3 0.317579 116.207 0.317579C114.115 0.317579 112.418 2.01406 112.418 4.10677C112.418 6.19948 114.115 7.89595 116.207 7.89595ZM57.8559 63.4617L116.71 4.60915L115.705 3.60438L56.8511 62.457L57.8559 63.4617Z" fill="white"/>
<circle cx="86.9606" cy="34.1387" r="7.48017" fill="black"/>
</svg>
